<?xml version="1.0" encoding="UTF-8"?>
<svg id="Calque_1" data-name="Calque 1" xmlns="http://www.w3.org/2000/svg" viewBox="0 0 690.57 192.6">
  <defs>
    <style>
      .cls-1 {
        fill: #c08541;
      }

      .cls-2 {
        fill: #05436c;
      }
    </style>
  </defs>
  <path class="cls-1" d="m100.18,164.07v-60.89h-22.54v-20.21h42.83v109.63c-6.42,0-12.86.02-19.3-.04-.5,0-1.07-.52-1.5-.91-3.59-3.35-7.19-6.68-10.72-10.09-7.31-7.05-14.54-14.18-21.86-21.21-9.08-8.73-18.21-17.4-27.32-26.1-9.18-8.77-18.35-17.55-27.56-26.3-3.99-3.79-8.07-7.5-12.21-11.34,4.51-4.58,8.74-8.89,12.99-13.17.49-.49,1.2-.76,1.7-1.24,7.22-6.99,14.41-14.02,21.65-20.99,10.18-9.81,20.38-19.6,30.6-29.37,8.29-7.92,16.61-15.81,24.93-23.69,2.59-2.46,5.22-4.87,7.89-7.25.49-.44,1.21-.85,1.83-.85C110.7-.01,119.81,0,129.9,0c-4.05,3.75-7.46,6.9-10.87,10.05-.38.35-.75.7-1.12,1.06-8.08,7.87-16.13,15.79-24.26,23.62-9.22,8.88-18.5,17.69-27.76,26.54-9.14,8.73-18.27,17.46-27.42,26.17-2.44,2.32-4.94,4.58-7.44,6.83-1.58,1.42-1.46,2.69.04,4.12,9.79,9.33,19.53,18.7,29.31,28.04,2.51,2.4,5.14,4.66,7.65,7.06,6.58,6.32,13.09,12.72,19.69,19.02,4.03,3.85,8.18,7.58,12.47,11.55Z"/>
  <path class="cls-2" d="m250.96,186.54c0-9.18-.43-17.54.27-25.8.2-2.43,3.56-4.62,5.54-6.87.51-.58,1.35-.88,1.92-1.43,7.95-7.71,15.84-15.47,23.82-23.15,9.36-9.01,18.76-17.98,28.18-26.93,2.12-2.01,4.38-3.86,6.91-6.08-5.07-4.76-9.88-9.17-14.57-13.7-8.12-7.83-16.13-15.77-24.25-23.59-8.62-8.3-17.35-16.47-25.92-24.82-1.01-.99-1.77-2.74-1.8-4.15-.17-8.22-.08-16.44-.08-25.09.81.68,1.41,1.12,1.93,1.63,6.48,6.26,12.94,12.56,19.44,18.8,9.15,8.78,18.34,17.53,27.51,26.29,9.17,8.76,18.32,17.55,27.53,26.27,5.63,5.33,11.32,10.59,17.06,15.79,1.72,1.56,2.05,2.64.17,4.42-7.22,6.83-14.28,13.83-21.44,20.73-3.75,3.62-7.59,7.14-11.35,10.75-9.98,9.55-19.94,19.13-29.92,28.68-9.02,8.63-18.04,17.24-27.11,25.82-.93.87-2.18,1.4-3.82,2.43Z"/>
  <path class="cls-2" d="m247.69,192.53h-20V.2h20v192.33Z"/>
  <path class="cls-1" d="m121.82,45.08c6.31,5.96,12.63,11.89,18.92,17.87,9.27,8.82,18.51,17.67,27.76,26.51,9.33,8.91,18.64,17.83,27.98,26.74,8.37,7.98,16.79,15.9,25.09,23.95.89.86,1.52,2.42,1.55,3.67.15,6.99.1,13.98.05,20.98,0,1.15-.34,2.3-.57,3.73-3.15-2.81-6.11-5.29-8.89-7.96-7.69-7.39-15.28-14.89-22.96-22.29-9.73-9.38-19.54-18.68-29.26-28.07-4.62-4.46-9.05-9.11-13.72-13.53-8.51-8.06-17.1-16.03-25.72-23.97-1.48-1.36-2.05-2.8-2.02-4.81.14-7.61.11-15.21.14-22.82.55,0,1.1,0,1.65,0Z"/>
  <path class="cls-1" d="m604.3,63.59c-9.54.83-18.11-8.31-18.04-18.74.08-10.94,7.92-19.13,18.27-18.84,12.58.35,18.32,8.32,18.6,18.77.28,10.68-8.01,19.47-18.83,18.81Zm-11.9-18.6c-.27,4.65,1.09,8.6,5.15,11.22,4.3,2.77,8.94,3.15,13.31.53,4.76-2.85,6.46-7.39,6.29-12.96-.25-8.37-7.36-13.98-15.95-12.07-5.08,1.13-9.57,7.15-8.81,13.28Z"/>
  <path class="cls-2" d="m543.71,78.4c10.15-.53,18.51,8.39,18.43,18.89-.08,10.3-7.78,19.05-18.86,18.82-10.09-.21-18.74-8.8-18.1-18.96.68-10.79,7.15-18.9,18.53-18.75Zm12.26,18.97c0-8.4-4.22-13.41-11.28-13.42-8.29,0-13.41,4.76-13.41,12.49,0,8.81,4.57,13.63,12.16,14.18,6.64.48,13.71-6.21,12.54-13.26Z"/>
  <path class="cls-1" d="m398.66,32.15c-1.32,1.19-2.52,2.27-3.75,3.38-3.49-3.86-7.97-4.83-13.15-3.68-8.88,1.98-11.53,13.47-6.98,21.13,2.32,3.91,6.43,5.8,10.88,5.5,3.99-.28,7.71-1.88,9.21-6.26.36-1.04.62-2.12.98-3.39h-11.3v-5.43h16.72c1.71,7.87-2.37,16.26-8.81,18.83-11.98,4.78-24.58-2.05-25.44-15.89-.28-4.48.61-8.63,2.91-12.5,5.58-9.41,22.17-10.88,28.73-1.69Z"/>
  <path class="cls-2" d="m640.03,115.33h-6.05v-36.33c6.64.62,13.56-1.46,20.12,1.86,3.58,1.81,5.41,5.59,4.98,10.38-.34,3.77-3.28,7.2-7.02,8.13-1.26.31-2.54.53-4.06.84,3.9,4.99,7.75,9.93,11.68,14.95-4.59.99-7.62,0-10.02-4.18-2.5-4.35-6.09-8.08-9.63-12.62v16.97Zm.08-31.37v11.73c2.4,0,4.64.08,6.87-.02,3.66-.16,6.66-2.96,6.53-5.97-.13-3.04-2.89-5.55-6.46-5.72-2.23-.11-4.48-.02-6.93-.02Z"/>
  <path class="cls-1" d="m475.04,39.01v23.8h-5.79V26.23c.25-.13.51-.26.76-.39,7.28,8.17,14.56,16.34,22.23,24.96v-24.07h5.55v36.63c-.2.16-.41.32-.61.47-7.17-8.04-14.34-16.08-22.13-24.82Z"/>
  <path class="cls-1" d="m575.15,50.97v-24.2h5.33v37.67c-7.73-8.65-14.93-16.71-22.6-25.29v23.62h-5.93V26.32c.27-.16.53-.31.8-.47,7.3,8.18,14.6,16.36,22.41,25.12Z"/>
  <path class="cls-1" d="m506.1,62.97V26.16c5.82.44,11.66.11,17.09,1.44,11.45,2.8,14.95,13.06,12.08,23.19-2.18,7.69-10.27,12.02-16.63,12.17-4.09.1-8.19.02-12.53.02Zm5.64-31.59v26.92c3.26-.31,6.34-.33,9.28-.96,4.49-.97,7.73-3.9,8.81-8.31,1.13-4.63,1.25-9.38-2.57-13.26-4.32-4.39-9.91-3.89-15.52-4.39Z"/>
  <path class="cls-2" d="m369.01,115.45v-36.37c7.94.19,16.05-1.38,23.38,3.62,8.49,5.79,8.46,19.79,2.71,26.06-4.43,4.83-9.86,6.73-16.2,6.69-3.19-.02-6.37,0-9.89,0Zm5.63-31.34v26.25c14.13.92,18.79-5.06,18.72-13.46-.07-8.46-3.72-13.61-18.72-12.79Z"/>
  <path class="cls-1" d="m660.45,62.97V26.61c8.32.15,16.81-1.4,24.08,4.62,5.12,4.24,6.6,9.85,5.83,15.96-1.42,11.19-11.11,16.21-20,15.82-3.18-.14-6.37-.02-9.9-.02Zm5.55-5c6.8.28,13.34.15,16.95-6.49,2.48-4.56,2.69-9.93-.16-14.26-3.87-5.89-10.46-5.57-16.8-5.75v26.5Z"/>
  <path class="cls-1" d="m421.02,47.75c4,5.12,7.74,9.91,11.45,14.66-6.07,2.72-8.34-1.82-11.06-5.47-2.74-3.67-5.45-7.35-8.6-11.6v17.4h-5.44V26.5c6.34.58,12.8-1.29,18.92,1.59,4.12,1.93,6.82,6.5,6.16,10.14-.95,5.32-4.14,8.53-9.25,9.3-.57.09-1.14.12-2.19.22Zm-8.16-4.54c2.89,0,5.54.07,8.19-.02,2.5-.08,5.09-2.43,5.26-4.59.31-3.84-.92-5.88-4.35-6.45-2.95-.5-5.96-.6-9.1-.89v11.96Z"/>
  <path class="cls-1" d="m634.4,45.24v17.54h-5.4V26.45c6.42.69,12.9-1.28,19.02,1.68,3.97,1.92,6.61,6.25,6.12,9.87-.72,5.29-4.13,8.78-9.34,9.53-.5.07-1.01.07-2.15.14,3.99,5.12,7.73,9.9,11.46,14.69-3.78,1.43-6.24.88-8.51-2.1-3.59-4.72-7.1-9.51-11.18-15.01Zm.14-2.02c2.37,0,4.6,0,6.83,0,.62,0,1.43.25,1.81-.05,1.66-1.3,3.96-2.47,4.61-4.21,1.12-3.02-.32-5.85-2.93-6.44-3.36-.77-6.86-.91-10.33-1.33v12.04Z"/>
  <path class="cls-2" d="m608.61,93.84c4.6,0,8.92.1,13.23-.04,2.32-.08,2.71.98,2.72,2.97.01,2.04-.73,2.7-2.72,2.66-4.31-.11-8.63-.03-13.16-.03v10.96h16.86v4.9h-22.45v-36.05h21.86v4.69h-16.33v9.94Z"/>
  <path class="cls-2" d="m472.19,79.02h21.86v4.88h-16.33v9.94c4.46,0,8.85.1,13.23-.04,2.32-.08,2.7.98,2.72,2.97.01,2.04-.73,2.7-2.72,2.66-4.31-.11-8.63-.03-13.16-.03v10.96h16.86v4.9h-22.45v-36.24Z"/>
  <path class="cls-2" d="m575.76,102.19v13.06h-6.01v-36.48c5.88.3,11.87.23,17.75,1.03,4.33.59,8.18,6.49,8,10.84-.22,5.06-3.74,9.72-8.48,10.54-3.57.62-7.24.67-11.25,1.01Zm.13-18.38v13.12c2.49,0,4.84.12,7.18-.03,3.64-.24,5.97-2.19,6.25-4.97.47-4.68-.53-6.53-4.93-7.55-2.63-.61-5.46-.4-8.49-.57Z"/>
  <path class="cls-2" d="m407.36,79.11h21.86v4.79h-16.33v9.92h15.14v5.49h-15.07v11.05h16.24v4.9h-21.83v-36.15Z"/>
  <path class="cls-2" d="m690.01,83.2c-1.01,1.18-1.92,2.25-2.73,3.2-2.36-1-4.48-2.08-6.71-2.81-2.92-.95-7.27.56-8.75,2.77-1.97,2.94-.13,6.32,4.04,7.46,2.68.73,5.39,1.4,8.03,2.27,4.73,1.56,6.68,4.31,6.69,9.12,0,4.37-2.72,8.11-6.77,9.65-7.36,2.79-13.74,1.02-19.72-4.28,1.04-1.22,2.17-2.55,2.79-3.28,3.7,1.28,6.86,2.91,10.17,3.33,2.13.27,5.04-.65,6.61-2.1,2.71-2.51,1.03-6.54-2.94-7.86-2.73-.91-5.51-1.66-8.29-2.38-4.35-1.13-6.7-4.15-7.07-8.36-.38-4.32,1.58-7.99,5.51-9.92,5.73-2.81,13.89-2.57,19.16,3.19Z"/>
  <path class="cls-1" d="m449.64,24.94c5.63,13.22,10.86,25.51,16.19,38.03-1.25,0-2.11-.16-2.89.03-2.57.61-3.69-.88-4.46-2.92q-1.96-5.13-7.29-5.14h-8.39c-2.57,3.33-1.63,10.21-9.27,7.56,5.23-12.19,10.48-24.44,16.11-37.56Zm-.15,11.84c-1.82,4.63-3.47,8.82-5.14,13.08h10.45c-1.77-4.37-3.45-8.52-5.3-13.08Z"/>
  <path class="cls-2" d="m450.05,104.66c3.57-8.81,6.93-17.12,10.34-25.52h5.55c-.77,2.29-1.35,4.51-2.25,6.6-4.26,9.88-8.59,19.73-12.93,29.58-.14.32-.57.52-1.25,1.11-5.42-12.51-10.73-24.76-16.16-37.3h6.24c3.37,8.21,6.79,16.56,10.46,25.53Z"/>
  <path class="cls-2" d="m502.96,115.25v-36.02h5.93v31.12h14.14v4.9h-20.08Z"/>
  <path d="m441.13,160.36c0-4.56,0-8.98,0-13.39,0-4.46-2.1-7.2-5.68-7.44-3.92-.26-7.19,3.03-7.27,7.44-.08,4.41-.02,8.83-.02,13.38-1.83.31-3.12.29-3.1-2.04.05-6.78.02-13.55.02-20.49h2.98c.06.83.11,1.71.17,2.54,5.57-4.87,10.64-4.84,15.15,1.44,3.65-4.89,8.04-6.16,12.55-3.52,2.34,1.37,3.63,3.52,3.69,6.18.12,4.73.1,9.47-.03,14.2-.02.75-.9,1.48-1.39,2.21-.34-.15-.68-.29-1.02-.44,0-4.6-.12-9.21.04-13.8.15-4.41-4.38-9.09-9.63-5.97-2.38,1.42-3.26,3.44-3.34,5.92-.12,3.7-.11,7.41,0,11.11.06,2.08-.5,3.22-3.12,2.66Z"/>
  <path d="m500.4,160.36h-2.47c0-4.56-.07-8.97.02-13.38.11-5.09-3.38-7.31-6.22-7.42-3.92-.15-6.75,3.17-6.76,7.6,0,3.6-.08,7.2.03,10.8.06,2.08-.76,2.86-3.12,2.4,0-4.39,0-8.88,0-13.36,0-4.63-2.35-7.57-5.95-7.48-4.06.1-6.91,3.05-7,7.41-.08,4.41-.02,8.83-.02,13.32-2.13.61-3.13.1-3.11-2.21.07-6.68.02-13.35.02-20.2h3c.04.79.09,1.66.14,2.55,5.59-4.89,10.66-4.87,15.15,1.4,2.85-4.96,8.81-5.95,12.54-3.53,2.28,1.48,3.64,3.54,3.71,6.17.14,5.23.04,10.47.04,15.93Z"/>
  <path d="m395.06,132.92c-.88.59-1.61,1.08-2.33,1.57-5.13-6.5-15.28-4.79-19.12-.72-3.75,3.98-4.46,12.43-2.3,16.64,2.45,4.78,6.16,7.66,11.63,7.58,3.25-.05,6.23-1.13,8.6-3.63.58-.61,1.82-.59,2.75-.87-.24,1.01-.15,2.33-.77,2.97-4.2,4.32-9.51,5.35-15.09,3.83-5.7-1.54-9.31-5.45-10.8-11.32-2.03-7.99,1.08-15.78,6.25-19.24,5.74-3.84,16.26-3.57,21.18,3.18Z"/>
  <path d="m408.75,137.05c6.46,0,11.85,5.27,11.97,11.69.12,6.39-5.61,12.56-11.96,12.32-6.31-.24-11.43-5.05-11.53-12.45-.08-6.25,5.45-11.84,11.51-11.56Zm.19,20.99c5.03,0,8.8-4.04,8.72-9.36-.07-5.04-4.06-9.29-8.74-9.14-4.13.13-8.97,3.74-8.66,8.68.41,6.53,2.94,9.82,8.67,9.82Z"/>
  <path d="m534.98,160.37c-2.16.41-3.14-.11-3.12-2.29.08-6.66.03-13.33.03-20.26,1.03-.05,1.97-.09,3.1-.15v3.43c2.93-3.6,6.43-4.74,10.27-3.84,3.76.88,6.22,4.83,6.36,9.53.12,3.79-.03,7.6.05,11.39.05,2.21-1.05,2.61-3.11,2.15,0-4.49,0-8.99,0-13.49,0-3.99-2.59-7.14-6.01-7.31-3.69-.18-7.49,3.48-7.56,7.41-.07,4.4-.02,8.81-.02,13.43Z"/>
  <path d="m505.96,137.72h3.09c0,4.32,0,8.61,0,12.89,0,4.98,1.88,7.33,5.86,7.44,4.84.13,7.55-2.81,7.7-7.6.13-4.1.03-8.21.03-12.56.77-.07,1.49-.13,2.35-.2v22.72h-2.28v-2.87c-1.8.98-3.52,2.38-5.47,2.87-1.9.48-4.12.35-6.06-.1-2.76-.64-5.17-5-5.2-8.76-.04-4.51,0-9.02,0-13.82Z"/>
  <path d="m603.67,138.19c-3.85,8.66-7.69,17.32-11.54,25.98-.52,1.17-.86,2.47-1.61,3.48-.75,1.02-1.9,1.76-2.87,2.63-.3-.26-.59-.53-.89-.79,1.26-2.73,2.64-5.41,3.71-8.21.4-1.06.47-2.55.04-3.56-2.77-6.55-5.72-13.02-8.63-19.55,2.49-1.48,3.3.21,4.07,2.02,2.16,5.09,4.34,10.16,6.78,15.89,1.89-4.24,3.58-7.94,5.2-11.66.79-1.8,1.27-3.77,2.27-5.44.5-.83,1.85-1.15,2.82-1.7.22.3.43.61.65.91Z"/>
  <path d="m571.41,140.02c0,5.16-.07,9.88.02,14.59.06,2.93,2.79,4.38,5.99,3.26.73-.26,1.38-.74,2.07-1.12.28.14.57.29.85.43-.4.87-.56,2.11-1.23,2.53-2.38,1.47-4.87,1.78-7.53.25-2.41-1.38-3.25-3.4-3.25-5.97-.01-4.51,0-9.02,0-13.77h-4.14c-.72-4.18,2.66-1.75,4.04-2.99v-6.24c1.1-.06,1.97-.1,3.07-.16v6.35c3.1,1.52,7.06-1.05,9.59,1.58-.09.41-.18.83-.27,1.24h-9.2Z"/>
  <path d="m560.16,160.36h-2.13c-.09-.34-.19-.53-.19-.72,0-7.16,0-14.32,0-21.74.72-.08,1.44-.16,2.32-.26v22.71Z"/>
  <path d="m562.06,129.16c-1.3,1.01-2.11,2.11-3,2.18-.69.06-2.14-1.23-2.08-1.81.08-.84,1.16-2.14,1.91-2.21.85-.08,1.81.98,3.18,1.83Z"/>
  <path class="cls-1" d="m121.82,45.08c-.55,0-1.1,0-1.65,0,0-.42,0-.83,0-1.25.2,0,.39-.01.58-.03.35.43.71.85,1.06,1.28Z"/>
  <path class="cls-1" d="m120.75,43.81c-.19.02-.39.02-.58.03.04-.15.08-.3.12-.44.16.14.31.28.47.42Z"/>
</svg>