<?xml version="1.0" encoding="UTF-8"?>
<svg id="Calque_1" data-name="Calque 1" xmlns="http://www.w3.org/2000/svg" viewBox="0 0 343.57 192.6">
  <defs>
    <style>
      .cls-1 {
        fill: #c08541;
      }

      .cls-2 {
        fill: #05436c;
      }
    </style>
  </defs>
  <path class="cls-1" d="m100.18,164.07v-60.89h-22.54v-20.21h42.83v109.63c-6.42,0-12.86.02-19.3-.04-.5,0-1.07-.52-1.5-.91-3.59-3.35-7.19-6.68-10.72-10.09-7.31-7.05-14.54-14.18-21.86-21.21-9.08-8.73-18.21-17.4-27.32-26.1-9.18-8.77-18.35-17.55-27.56-26.3-3.99-3.79-8.07-7.5-12.21-11.34,4.51-4.58,8.74-8.89,12.99-13.17.49-.49,1.2-.76,1.7-1.24,7.22-6.99,14.41-14.02,21.65-20.99,10.18-9.81,20.38-19.6,30.6-29.37,8.29-7.92,16.61-15.81,24.93-23.69,2.59-2.46,5.22-4.87,7.89-7.25.49-.44,1.21-.85,1.83-.85C110.7-.01,119.81,0,129.9,0c-4.05,3.75-7.46,6.9-10.87,10.05-.38.35-.75.7-1.12,1.06-8.08,7.87-16.13,15.79-24.26,23.62-9.22,8.88-18.5,17.69-27.76,26.54-9.14,8.73-18.27,17.46-27.42,26.17-2.44,2.32-4.94,4.58-7.44,6.83-1.58,1.42-1.46,2.69.04,4.12,9.79,9.33,19.53,18.7,29.31,28.04,2.51,2.4,5.14,4.66,7.65,7.06,6.58,6.32,13.09,12.72,19.69,19.02,4.03,3.85,8.18,7.58,12.47,11.55Z"/>
  <path class="cls-2" d="m250.96,186.54c0-9.18-.43-17.54.27-25.8.2-2.43,3.56-4.62,5.54-6.87.51-.58,1.35-.88,1.92-1.43,7.95-7.71,15.84-15.47,23.82-23.15,9.36-9.01,18.76-17.98,28.18-26.93,2.12-2.01,4.38-3.86,6.91-6.08-5.07-4.76-9.88-9.17-14.57-13.7-8.12-7.83-16.13-15.77-24.25-23.59-8.62-8.3-17.35-16.47-25.92-24.82-1.01-.99-1.77-2.74-1.8-4.15-.17-8.22-.08-16.44-.08-25.09.81.68,1.41,1.12,1.93,1.63,6.48,6.26,12.94,12.56,19.44,18.8,9.15,8.78,18.34,17.53,27.51,26.29,9.17,8.76,18.32,17.55,27.53,26.27,5.63,5.33,11.32,10.59,17.06,15.79,1.72,1.56,2.05,2.64.17,4.42-7.22,6.83-14.28,13.83-21.44,20.73-3.75,3.62-7.59,7.14-11.35,10.75-9.98,9.55-19.94,19.13-29.92,28.68-9.02,8.63-18.04,17.24-27.11,25.82-.93.87-2.18,1.4-3.82,2.43Z"/>
  <path class="cls-2" d="m247.69,192.53h-20V.2h20v192.33Z"/>
  <path class="cls-1" d="m121.82,45.08c6.31,5.96,12.63,11.89,18.92,17.87,9.27,8.82,18.51,17.67,27.76,26.51,9.33,8.91,18.64,17.83,27.98,26.74,8.37,7.98,16.79,15.9,25.09,23.95.89.86,1.52,2.42,1.55,3.67.15,6.99.1,13.98.05,20.98,0,1.15-.34,2.3-.57,3.73-3.15-2.81-6.11-5.29-8.89-7.96-7.69-7.39-15.28-14.89-22.96-22.29-9.73-9.38-19.54-18.68-29.26-28.07-4.62-4.46-9.05-9.11-13.72-13.53-8.51-8.06-17.1-16.03-25.72-23.97-1.48-1.36-2.05-2.8-2.02-4.81.14-7.61.11-15.21.14-22.82.55,0,1.1,0,1.65,0Z"/>
</svg>